<svg 
 xmlns="http://www.w3.org/2000/svg"
 xmlns:xlink="http://www.w3.org/1999/xlink"
 width="993px" height="173px">
<path fill-rule="evenodd"  fill="rgb(36, 36, 36)"
 d="M987.988,51.325 L948.643,51.325 L948.643,88.107 L957.427,88.107 L967.675,76.396 L987.073,91.401 C985.792,93.048 984.145,94.146 979.936,95.061 L979.936,165.516 C979.936,166.614 972.799,170.457 962.002,170.457 L958.342,170.457 L958.342,156.732 L918.082,156.732 L918.082,166.980 C918.082,168.627 911.677,172.287 901.063,172.287 L897.403,172.287 L897.403,79.507 L920.095,88.107 L927.781,88.107 L927.781,0.634 L955.231,3.013 C955.048,5.575 953.584,7.405 948.643,8.137 L948.643,46.201 L962.368,46.201 L973.165,31.378 C973.165,31.378 985.609,41.443 992.929,48.397 C992.563,50.410 990.550,51.325 987.988,51.325 ZM918.082,93.414 L918.082,151.425 L958.342,151.425 L958.342,93.414 L918.082,93.414 ZM899.050,49.312 L822.008,49.312 L820.544,44.005 L874.895,44.005 L885.326,27.718 C885.326,27.718 897.403,39.064 903.991,46.384 C903.442,48.397 901.612,49.312 899.050,49.312 ZM850.739,36.136 C850.007,24.424 844.700,11.248 839.942,1.549 L841.589,0.817 C890.449,16.555 869.039,52.789 850.739,36.136 ZM830.792,57.547 C876.908,101.832 847.628,139.347 836.099,119.217 C836.831,104.211 836.282,77.860 828.413,58.645 L830.792,57.547 ZM860.438,132.027 C864.281,107.505 868.124,76.945 870.137,54.985 L897.586,62.305 C896.854,64.501 894.841,66.331 890.449,66.331 C885.143,83.350 876.359,108.786 866.660,130.746 C875.810,128.733 885.326,126.537 895.024,124.341 L895.390,126.354 C882.581,134.040 863.366,145.203 835.367,158.745 C834.635,161.124 832.805,163.137 830.609,163.686 L819.995,140.079 C827.864,138.798 842.870,135.870 860.438,132.027 ZM763.813,127.635 C760.885,101.283 746.245,70.906 731.605,48.397 L733.984,47.299 C808.465,89.937 789.799,150.693 763.813,127.635 ZM715.318,145.203 C715.318,160.575 711.475,169.542 684.026,172.104 C683.294,164.601 682.013,159.477 678.170,156.183 C674.510,152.523 669.569,149.961 658.223,148.131 L658.223,145.569 C658.223,145.569 683.111,147.033 688.052,147.033 C691.528,147.033 692.626,145.935 692.626,143.373 L692.626,3.013 L722.089,5.941 C721.540,8.686 719.893,10.333 715.318,11.065 L715.318,145.203 ZM674.144,57.730 C664.262,83.716 646.877,117.387 618.512,138.981 L616.682,137.334 C634.799,110.799 646.328,70.723 650.720,43.639 L681.281,54.253 C680.549,56.449 678.902,57.730 674.144,57.730 ZM516.763,111.531 C515.848,98.538 508.528,83.716 501.208,73.651 L502.672,72.553 C556.108,88.290 536.161,127.818 516.763,111.531 ZM575.506,44.005 C574.225,117.753 571.663,151.242 561.598,162.039 C555.010,168.993 546.958,171.921 534.880,171.921 C534.880,164.967 533.965,159.843 530.854,156.915 C527.560,153.438 520.423,150.510 511.456,148.863 L511.639,146.301 C520.423,147.033 533.050,147.948 537.808,147.948 C541.102,147.948 542.749,147.216 544.579,145.569 C551.350,139.347 553.180,102.930 554.461,40.528 L520.423,40.528 C511.639,56.083 501.208,69.076 489.496,78.958 L487.117,77.494 C497.182,58.828 507.064,28.999 511.822,1.000 L540.736,9.418 C540.004,11.797 537.808,13.078 533.599,13.078 C530.488,20.947 527.194,28.267 523.351,35.221 L552.448,35.221 L563.977,23.326 L583.558,40.528 C582.094,42.175 579.715,43.456 575.506,44.005 ZM486.568,153.438 C486.385,154.902 476.687,159.477 469.550,159.477 L466.439,159.477 L466.439,145.020 L438.623,145.020 L438.623,158.562 C438.623,160.941 430.937,165.516 422.153,165.516 L418.859,165.516 L418.859,27.169 L439.355,35.770 L440.453,35.770 C441.734,25.705 443.381,11.431 444.296,1.183 L473.942,8.320 C473.210,11.431 470.648,12.712 466.439,12.712 C461.681,19.117 454.544,28.633 448.688,35.770 L464.609,35.770 L474.308,24.790 L494.254,40.528 C492.973,42.175 490.228,43.639 486.568,44.371 L486.568,153.438 ZM466.439,41.077 L438.623,41.077 L438.623,86.461 L466.439,86.461 L466.439,41.077 ZM466.439,91.767 L438.623,91.767 L438.623,139.896 L466.439,139.896 L466.439,91.767 ZM331.201,168.078 C289.111,168.078 266.420,159.660 253.244,124.524 C245.375,143.190 232.016,160.575 208.775,172.287 L207.311,170.457 C230.735,148.497 238.238,115.191 239.519,88.107 L268.433,92.865 C267.701,95.427 265.688,97.074 261.296,97.257 C259.832,104.577 258.002,112.080 255.257,119.400 C261.845,130.929 270.263,137.883 281.608,142.275 L281.608,66.148 L255.806,66.148 L255.806,73.468 C255.806,75.664 246.290,80.239 237.506,80.239 L234.212,80.239 L234.212,5.758 L257.087,14.725 L326.809,14.725 L336.874,3.745 L357.919,19.849 C356.821,21.313 354.259,22.777 350.599,23.509 L350.599,71.455 C350.416,72.919 339.802,77.494 332.299,77.494 L328.639,77.494 L328.639,66.148 L303.568,66.148 L303.568,102.381 L330.652,102.381 L343.096,86.827 C343.096,86.827 357.553,97.257 365.971,104.577 C365.605,106.590 363.409,107.505 360.664,107.505 L303.568,107.505 L303.568,147.033 C311.986,147.948 321.502,148.314 332.299,148.314 C342.547,148.314 366.520,148.314 378.049,148.131 L378.049,150.327 C371.095,151.974 367.618,159.477 367.435,168.078 L331.201,168.078 ZM328.639,61.024 L328.639,20.032 L255.806,20.032 L255.806,61.024 L328.639,61.024 ZM169.612,23.875 L120.934,23.875 C116.908,37.417 109.771,60.292 104.647,74.749 L140.698,74.749 L152.227,63.403 L171.625,80.239 C170.344,81.886 167.782,82.984 163.756,83.533 C160.645,127.635 154.789,155.817 143.992,164.784 C137.221,170.274 129.169,172.104 115.810,172.104 C115.810,166.248 114.712,161.856 111.052,158.928 C107.392,155.451 98.059,152.523 88.177,150.876 L88.360,148.314 C99.157,149.229 115.993,150.510 120.934,150.510 C124.594,150.510 126.424,150.144 128.437,148.314 C135.025,143.190 139.783,116.289 142.345,80.056 L104.281,80.056 L96.412,89.022 L76.282,76.579 C78.112,75.115 80.857,73.651 83.602,72.370 C88.909,58.645 95.680,36.136 98.608,23.875 L69.512,23.875 L68.048,18.568 L141.979,18.568 L153.691,3.196 C153.691,3.196 166.867,13.627 174.736,20.947 C174.370,22.960 172.174,23.875 169.612,23.875 ZM54.140,44.737 L63.839,30.646 C63.839,30.646 75.185,40.528 81.589,47.116 C81.040,49.129 79.210,50.044 76.648,50.044 L51.029,50.044 L51.029,65.782 C96.229,80.788 77.929,113.910 61.460,99.453 C60.728,89.754 56.153,78.409 51.029,69.991 L51.029,166.065 C51.029,168.078 42.611,172.470 34.742,172.470 L30.716,172.470 L30.716,97.623 C23.030,109.884 13.697,121.047 2.534,130.929 L0.338,128.916 C14.429,107.505 23.396,78.409 28.154,50.044 L3.083,50.044 L1.619,44.737 L30.716,44.737 L30.716,0.268 L57.800,2.830 C57.434,5.575 56.153,7.405 51.029,8.137 L51.029,44.737 L54.140,44.737 Z"/>
</svg>