<svg 
 xmlns="http://www.w3.org/2000/svg"
 xmlns:xlink="http://www.w3.org/1999/xlink"
 width="993px" height="167px">
<path fill-rule="evenodd"  fill="rgb(42, 42, 42)"
 d="M992.212,49.853 C991.723,50.831 990.565,51.317 988.735,51.317 L950.488,51.317 C950.242,67.055 950.305,79.745 950.671,89.381 L958.540,89.381 C959.515,89.381 960.370,88.955 961.102,88.100 C962.077,86.636 963.724,84.746 966.043,82.427 C967.384,81.086 968.788,80.660 970.252,81.146 C975.862,83.708 980.866,86.882 985.258,90.662 C986.356,91.760 986.842,92.798 986.722,93.773 C986.476,94.871 985.318,96.152 983.245,97.616 C981.292,98.960 980.134,99.935 979.768,100.544 C979.522,100.910 979.402,102.008 979.402,103.838 C979.279,117.992 979.705,134.888 980.683,154.529 C980.683,157.457 979.462,159.653 977.023,161.117 C974.461,162.581 971.716,163.130 968.788,162.764 C964.639,162.398 962.383,160.139 962.017,155.993 L962.017,149.771 L925.051,149.771 L925.051,156.176 C924.928,158.858 923.647,160.871 921.208,162.215 C918.889,163.679 916.267,164.288 913.339,164.045 C908.701,163.799 906.322,161.300 906.202,156.542 C907.177,144.710 907.666,129.215 907.666,110.060 C907.420,110.183 906.934,110.489 906.202,110.975 C886.804,123.665 867.100,134.279 847.093,142.817 C846.361,143.063 845.383,143.549 844.165,144.281 C843.919,144.404 843.553,144.830 843.067,145.562 C841.969,147.758 840.382,147.635 838.309,145.196 C836.479,143.489 834.100,140.621 831.172,136.595 C828.730,133.181 827.146,130.739 826.414,129.275 C825.559,127.811 825.253,126.959 825.499,126.713 C825.865,126.347 826.840,126.164 828.427,126.164 C833.428,125.921 838.246,125.249 842.884,124.151 C847.153,123.419 854.716,121.772 865.576,119.210 C871.186,99.935 874.846,82.367 876.556,66.506 C876.799,63.944 876.799,60.407 876.556,55.892 C876.310,55.160 876.250,54.611 876.373,54.245 C876.493,53.759 876.982,53.696 877.837,54.062 C882.961,55.160 890.158,57.845 899.431,62.114 C900.406,62.603 901.078,63.275 901.444,64.127 C902.176,65.714 900.712,67.178 897.052,68.519 C895.465,69.008 894.244,70.289 893.392,72.362 C885.217,91.151 878.080,106.217 871.981,117.563 C883.693,114.515 894.673,111.341 904.921,108.047 C905.287,107.927 906.202,107.681 907.666,107.315 L907.666,101.276 C907.666,93.347 907.117,86.636 906.019,81.146 C905.530,79.682 906.079,79.256 907.666,79.865 C914.374,82.184 921.085,85.172 927.796,88.832 C928.039,89.078 928.222,89.261 928.345,89.381 L932.737,89.381 C933.103,76.205 933.103,54.491 932.737,24.233 C932.491,13.742 931.822,6.239 930.724,1.724 C930.601,0.992 930.661,0.566 930.907,0.443 C931.027,0.323 931.456,0.323 932.188,0.443 C939.508,1.541 947.131,3.128 955.063,5.201 C957.013,5.933 957.928,6.848 957.808,7.946 C957.685,8.924 956.893,9.959 955.429,11.057 C953.110,12.644 951.889,13.559 951.769,13.802 C951.280,14.534 950.974,16.487 950.854,19.658 C950.608,28.442 950.488,37.472 950.488,46.742 L959.821,46.742 C960.796,46.742 961.711,46.010 962.566,44.546 C964.882,40.277 968.056,36.008 972.082,31.736 C972.934,30.884 973.972,30.761 975.193,31.370 C978.121,32.714 981.292,34.910 984.709,37.958 C988.369,41.252 990.808,44.303 992.029,47.108 C992.638,48.086 992.698,49.001 992.212,49.853 ZM927.613,94.322 C927.367,94.568 926.881,94.934 926.149,95.420 C925.417,96.032 925.051,97.067 925.051,98.531 C924.928,101.948 924.868,117.443 924.868,145.013 L962.200,145.013 C962.443,119.639 962.443,103.718 962.200,97.250 C962.077,96.152 961.771,95.360 961.285,94.871 C960.796,94.505 960.004,94.322 958.906,94.322 L927.613,94.322 ZM842.518,62.297 C848.008,65.714 852.643,69.497 856.426,73.643 C861.061,78.647 863.929,83.465 865.027,88.100 C865.879,92.615 865.393,96.335 863.563,99.263 C861.610,102.071 859.231,103.655 856.426,104.021 C851.668,104.753 848.740,101.276 847.642,93.590 C846.421,82.124 843.799,72.485 839.773,64.676 C838.552,61.994 838.063,60.530 838.309,60.284 C838.675,60.041 840.076,60.713 842.518,62.297 ZM906.202,48.938 L869.236,48.938 C858.256,48.938 847.702,49.487 837.577,50.585 C836.113,50.708 834.283,49.550 832.087,47.108 C830.134,44.792 829.159,43.022 829.159,41.801 C839.041,43.022 848.860,43.877 858.622,44.363 C858.865,38.753 858.865,33.749 858.622,29.357 C858.622,20.087 857.950,12.155 856.609,5.567 C856.363,4.469 856.303,3.800 856.426,3.554 C856.546,3.311 857.035,3.251 857.890,3.371 C863.380,3.983 870.637,5.630 879.667,8.312 C882.595,9.290 883.876,10.571 883.510,12.155 C883.144,13.742 881.497,15.206 878.569,16.547 C877.105,17.279 876.250,18.743 876.007,20.939 C875.518,26.309 875.395,34.178 875.641,44.546 L880.399,44.546 C881.374,44.546 882.289,43.997 883.144,42.899 C886.315,37.289 889.183,33.323 891.745,31.004 C892.720,30.395 893.575,30.272 894.307,30.638 C900.406,33.689 905.347,38.387 909.130,44.729 C909.496,45.461 909.679,46.256 909.679,47.108 C909.556,48.206 908.398,48.818 906.202,48.938 ZM782.860,111.890 C779.809,113.600 776.758,113.720 773.710,112.256 C770.293,110.672 767.425,107.315 765.109,102.191 C762.181,95.360 758.581,88.466 754.312,81.512 C748.942,72.728 743.452,65.714 737.842,60.467 C735.646,58.394 734.668,57.236 734.914,56.990 C735.157,56.624 736.987,56.930 740.404,57.905 C749.188,60.833 757.726,65.165 766.024,70.898 C774.928,77.000 781.396,83.342 785.422,89.930 C788.350,94.445 789.385,98.897 788.533,103.289 C787.801,107.195 785.908,110.060 782.860,111.890 ZM720.823,20.024 C719.602,20.756 718.870,21.305 718.627,21.671 C718.381,22.037 718.198,22.952 718.078,24.416 C716.734,44.060 716.614,74.804 717.712,116.648 C717.955,127.262 718.198,134.156 718.444,137.327 C718.930,144.038 717.223,149.648 713.320,154.163 C709.048,159.041 702.706,161.909 694.288,162.764 C690.748,163.007 688.249,161.726 686.785,158.921 C684.955,155.504 678.916,150.989 668.668,145.379 C664.153,143.306 661.834,141.965 661.714,141.353 C661.714,141.233 662.323,141.233 663.544,141.353 C677.818,143.795 687.394,144.344 692.275,143.000 C696.178,142.025 698.251,139.403 698.497,135.131 C699.229,105.974 699.166,70.655 698.314,29.174 C698.068,23.075 697.336,16.670 696.118,9.959 C695.995,8.861 696.055,8.192 696.301,7.946 C696.544,7.703 697.276,7.703 698.497,7.946 C706.303,8.801 713.989,10.265 721.555,12.338 C724.483,13.316 725.641,14.474 725.032,15.815 C724.543,17.159 723.139,18.560 720.823,20.024 ZM678.733,71.996 C676.291,72.119 674.341,73.277 672.877,75.473 C657.139,98.777 640.912,114.515 624.199,122.687 C620.905,124.274 619.075,124.946 618.709,124.700 C618.343,124.457 619.624,122.993 622.552,120.308 C627.676,115.430 633.286,107.864 639.388,97.616 C645.487,87.368 650.122,77.732 653.296,68.702 C654.637,64.556 655.552,60.530 656.041,56.624 C656.161,55.283 656.284,54.551 656.407,54.428 C656.650,54.185 657.688,54.308 659.518,54.794 C665.860,56.624 672.694,59.675 680.014,63.944 C683.062,65.897 684.406,67.604 684.040,69.068 C683.674,70.289 681.904,71.264 678.733,71.996 ZM574.057,53.330 C573.445,54.308 573.142,55.709 573.142,57.539 C573.142,88.895 571.861,111.404 569.299,125.066 C567.223,136.778 562.894,146.051 556.306,152.882 C549.595,159.836 541.177,163.616 531.052,164.228 C529.831,164.348 528.673,164.165 527.575,163.679 C526.231,163.067 525.379,162.152 525.013,160.934 C524.401,159.347 522.511,157.274 519.340,154.712 C517.510,153.248 514.459,151.052 510.190,148.124 C508.846,147.269 507.505,146.357 506.164,145.379 C504.211,143.915 503.296,143.063 503.419,142.817 C503.419,142.697 503.479,142.634 503.602,142.634 C503.845,142.634 504.211,142.697 504.700,142.817 C511.897,144.281 517.447,145.196 521.353,145.562 C526.963,146.051 531.538,145.808 535.078,144.830 C543.496,142.391 548.986,134.828 551.548,122.138 C553.621,112.622 554.902,99.080 555.391,81.512 C555.757,68.093 555.694,56.990 555.208,48.206 C555.208,46.988 555.145,46.256 555.025,46.010 C554.779,45.524 553.987,45.278 552.646,45.278 L516.595,45.278 C506.713,62.360 496.099,75.536 484.753,84.806 C484.996,109.085 485.422,126.164 486.034,136.046 C485.911,139.220 484.570,141.599 482.008,143.183 C479.323,144.770 476.518,145.319 473.590,144.830 C469.807,144.344 467.734,142.025 467.368,137.876 C467.488,134.582 467.551,131.228 467.551,127.811 L446.140,127.811 C446.260,133.547 446.323,139.280 446.323,145.013 C446.200,148.061 444.736,150.320 441.931,151.784 C439.246,153.368 436.378,153.917 433.330,153.431 C429.181,152.942 427.108,150.380 427.108,145.745 C428.938,126.836 429.547,97.556 428.938,57.905 C428.938,51.563 428.206,43.145 426.742,32.651 C426.619,31.799 426.679,31.310 426.925,31.187 C427.168,31.067 427.657,31.127 428.389,31.370 C434.731,33.200 440.893,35.762 446.872,39.056 C447.724,33.566 448.273,26.063 448.519,16.547 C448.519,13.499 448.153,9.533 447.421,4.652 C447.298,4.043 447.298,3.677 447.421,3.554 C447.664,3.554 447.970,3.554 448.336,3.554 C458.704,4.775 467.185,7.397 473.773,11.423 C475.357,12.401 475.786,13.619 475.054,15.083 C474.322,16.427 472.675,17.279 470.113,17.645 C468.403,17.891 467.245,18.806 466.636,20.390 C463.219,25.880 458.401,32.714 452.179,40.886 L464.257,40.886 C464.989,40.886 465.781,40.460 466.636,39.605 C467.611,38.141 469.258,36.251 471.577,33.932 C472.186,33.323 472.735,32.834 473.224,32.468 C473.833,32.225 474.688,32.285 475.786,32.651 C481.519,35.093 486.520,38.204 490.792,41.984 C491.767,43.082 492.193,44.120 492.073,45.095 C491.827,46.316 490.669,47.657 488.596,49.121 C485.911,50.585 484.630,52.721 484.753,55.526 C484.753,59.552 484.690,63.578 484.570,67.604 C484.570,72.851 484.630,76.937 484.753,79.865 C496.219,62.054 504.517,41.618 509.641,18.560 C510.982,11.852 511.591,6.971 511.471,3.920 C511.348,3.311 511.348,2.822 511.471,2.456 C511.591,2.213 512.263,2.153 513.484,2.273 C520.681,3.737 527.635,6.179 534.346,9.593 C536.908,11.180 537.883,12.584 537.274,13.802 C536.785,14.900 534.832,15.938 531.418,16.913 C529.831,17.402 528.673,18.806 527.941,21.122 C525.499,27.710 522.634,34.115 519.340,40.337 L550.999,40.337 C552.463,40.337 553.561,39.851 554.293,38.873 C556.489,35.945 558.439,33.629 560.149,31.919 C561.001,31.310 562.039,31.250 563.260,31.736 C565.456,32.591 568.018,33.932 570.946,35.762 C575.338,38.447 578.692,41.069 581.011,43.631 C583.084,46.316 581.926,48.635 577.534,50.585 C575.824,51.317 574.666,52.232 574.057,53.330 ZM467.734,48.023 C467.611,46.559 466.756,45.827 465.172,45.827 L448.885,45.827 C448.762,45.950 448.336,46.256 447.604,46.742 C447.115,47.108 446.749,48.146 446.506,49.853 C446.140,54.857 445.957,65.105 445.957,80.597 L467.917,80.597 C467.917,62.909 467.854,52.049 467.734,48.023 ZM445.957,85.355 C445.957,102.680 446.017,115.247 446.140,123.053 L467.551,123.053 C467.794,107.927 467.917,95.360 467.917,85.355 L445.957,85.355 ZM373.672,148.124 C370.378,151.418 367.999,154.832 366.535,158.372 C365.314,161.054 362.995,162.581 359.581,162.947 C340.303,164.777 322.066,163.531 304.864,161.215 C294.127,159.628 284.917,155.053 277.231,147.490 C269.545,140.050 264.298,131.654 261.493,120.308 C255.757,131.654 245.945,140.748 236.741,148.030 C228.460,154.533 219.603,159.213 210.170,162.066 C207.277,162.916 205.610,163.075 205.168,162.549 C204.955,162.163 206.217,161.047 208.949,159.204 C221.187,150.838 231.317,139.966 239.342,126.580 C247.209,113.551 251.305,99.752 252.160,84.623 C252.037,83.891 252.160,83.465 252.526,83.342 C253.012,83.342 253.684,83.405 254.539,83.525 C261.247,84.746 268.264,86.576 275.584,89.015 C276.925,89.627 277.414,90.479 277.048,91.577 C276.682,92.675 275.461,93.590 273.388,94.322 C272.290,94.811 271.558,95.360 271.192,95.969 C270.826,96.701 270.214,98.288 269.362,100.727 C267.652,106.097 265.822,110.975 263.872,115.367 C268.384,127.202 276.316,134.803 287.662,140.170 C287.905,109.549 287.845,90.176 287.479,80.048 C287.233,75.536 286.747,71.327 286.015,67.421 L263.604,67.421 L263.604,71.996 C263.481,74.681 262.140,76.694 259.578,78.035 C257.016,79.379 254.208,79.928 251.160,79.682 C246.156,79.439 243.657,76.937 243.657,72.179 C244.509,62.297 244.938,47.818 244.938,30.736 C244.938,22.075 244.206,15.121 242.742,9.874 C242.619,9.265 242.742,8.839 243.108,8.593 C243.228,8.473 243.657,8.473 244.389,8.593 C252.075,11.035 259.515,14.329 266.715,18.475 L267.264,18.841 L321.700,18.841 C322.675,18.841 324.467,18.475 325.079,17.743 C328.007,13.963 329.531,12.010 329.654,11.887 C330.506,10.423 331.970,9.937 334.046,10.423 C340.634,13.351 346.244,16.585 350.882,20.122 C352.466,21.586 353.138,22.930 352.895,24.148 C352.529,25.369 351.308,26.527 349.235,27.625 C347.405,28.480 346.244,29.272 345.758,30.004 C345.269,30.736 345.026,31.957 345.026,33.664 C344.780,42.082 345.269,54.977 346.490,70.349 C346.490,73.277 345.146,75.473 342.464,76.937 C339.902,78.281 337.034,78.767 333.863,78.401 C329.714,78.035 327.458,75.779 327.092,71.630 L327.092,67.421 L305.230,67.421 C306.448,67.667 307.669,67.910 308.890,68.153 C310.963,68.885 312.001,69.800 312.001,70.898 C312.001,72.119 310.963,73.217 308.890,74.192 C307.426,74.804 306.631,75.962 306.511,77.669 C305.899,84.989 305.596,93.224 305.596,102.374 L325.909,102.374 C327.250,102.374 328.165,101.825 328.654,100.727 C332.680,94.505 336.217,89.993 339.268,87.185 C339.877,86.576 340.732,86.516 341.830,87.002 C344.392,87.980 347.686,90.176 351.712,93.590 C355.981,97.250 358.726,100.484 359.947,103.289 C360.313,104.144 360.313,104.876 359.947,105.485 C359.458,106.217 358.300,106.583 356.470,106.583 L305.596,106.583 C305.473,110.975 305.596,123.091 305.962,144.928 L306.511,144.928 C317.857,146.026 329.629,147.089 341.830,146.111 C355.615,145.013 368.668,142.697 380.992,139.157 C381.724,138.914 382.150,138.914 382.273,139.157 C382.393,139.523 382.090,139.952 381.358,140.438 C379.405,142.148 376.843,144.710 373.672,148.124 ZM327.092,62.663 C327.335,43.145 327.395,30.310 327.275,26.161 C327.152,24.454 326.114,23.599 324.164,23.599 L266.715,23.599 C266.226,24.088 265.800,24.394 265.434,24.514 C264.336,25.126 263.724,26.527 263.604,28.723 C263.481,32.383 263.421,44.363 263.421,62.663 L327.092,62.663 ZM169.810,24.318 L120.766,24.318 C121.132,24.441 121.435,24.501 121.681,24.501 C123.877,24.990 124.975,25.782 124.975,26.880 C124.975,28.101 123.877,29.139 121.681,29.991 C120.217,30.480 119.179,31.335 118.570,32.553 C117.958,33.651 117.289,36.030 116.557,39.690 C114.604,47.622 113.162,56.393 110.702,64.179 C109.933,66.576 110.707,67.847 113.021,67.998 L138.404,69.648 C139.985,69.750 141.116,69.274 141.798,68.218 C145.330,64.659 147.792,62.495 149.189,61.729 C149.828,61.284 150.745,61.280 151.940,61.725 C159.753,65.657 165.400,69.998 168.882,74.746 C170.662,77.429 169.300,79.604 164.790,81.265 C162.663,81.984 161.274,82.687 160.619,83.378 C159.833,84.184 159.314,85.557 159.067,87.495 C156.674,107.392 157.000,118.967 153.340,131.654 C147.238,152.393 134.125,163.250 113.995,164.228 C110.944,164.471 108.748,163.373 107.407,160.934 C106.063,157.640 100.573,152.453 90.937,145.379 C86.911,142.451 84.775,140.561 84.532,139.706 C84.532,139.463 85.018,139.463 85.996,139.706 C93.802,141.782 99.109,143.123 101.917,143.732 C107.284,144.830 111.859,145.196 115.642,144.830 C124.669,143.978 130.951,138.122 134.491,127.262 C139.249,112.502 139.721,98.281 141.570,77.372 C141.519,76.269 141.439,75.593 141.335,75.340 C141.121,74.839 140.407,74.546 139.191,74.467 L116.182,72.971 C114.110,72.837 112.237,73.448 110.561,74.807 C107.172,78.011 105.156,79.897 104.508,80.465 C102.830,81.823 101.163,82.081 99.507,81.240 C93.821,78.426 88.644,74.362 83.978,69.044 C82.732,67.496 82.207,66.178 82.401,65.091 C82.723,63.891 84.012,62.874 86.267,62.041 C89.745,61.167 91.999,59.419 93.026,56.795 C94.440,53.833 95.512,47.988 97.708,38.592 C98.806,33.225 99.355,28.590 99.355,24.684 C93.133,25.050 85.996,25.599 77.944,26.331 C76.480,26.454 74.650,25.173 72.454,22.488 C70.378,19.926 69.403,18.036 69.526,16.815 C86.116,18.768 102.100,19.743 117.472,19.743 L139.066,19.743 C140.530,19.743 141.565,19.194 142.177,18.096 C147.055,9.924 150.412,4.983 152.242,3.273 C152.728,2.787 153.706,2.664 155.170,2.907 C157.852,3.885 161.146,6.264 165.052,10.044 C168.832,13.704 171.577,17.121 173.287,20.292 C174.628,22.977 173.470,24.318 169.810,24.318 ZM78.859,48.206 C79.468,49.184 79.651,50.036 79.408,50.768 C79.042,51.623 77.821,52.049 75.748,52.049 L51.775,52.049 C51.652,55.955 51.592,62.237 51.592,70.898 C62.572,70.166 70.075,72.059 74.101,76.571 C76.783,79.865 77.698,83.039 76.846,86.087 C76.114,89.138 74.404,91.334 71.722,92.675 C67.939,94.628 64.156,93.104 60.376,88.100 C59.032,85.661 57.751,83.099 56.533,80.414 C55.189,77.732 53.542,75.536 51.592,73.826 C51.592,103.472 52.078,131.594 53.056,158.189 C52.933,161.237 51.529,163.556 48.847,165.143 C46.162,166.727 43.294,167.276 40.246,166.790 C36.097,166.424 33.961,163.799 33.841,158.921 C34.939,138.548 35.608,116.162 35.854,91.760 C28.168,102.008 18.163,110.672 5.842,117.746 C2.791,119.456 1.144,120.065 0.901,119.576 C0.535,119.090 1.693,117.503 4.378,114.818 C17.065,101.399 26.887,84.440 33.841,63.944 C34.573,61.748 35.305,59.552 36.037,57.356 L36.037,52.232 C30.058,52.232 23.470,52.721 16.273,53.696 C15.295,53.819 13.771,52.661 11.698,50.219 C9.622,47.780 8.587,46.010 8.587,44.912 C16.150,46.010 25.300,46.805 36.037,47.291 C35.914,39.239 35.791,31.127 35.671,22.952 C35.548,15.512 34.756,8.741 33.292,2.639 C33.169,1.541 33.229,0.872 33.475,0.626 C33.718,0.383 34.510,0.383 35.854,0.626 C42.808,1.847 49.762,3.554 56.716,5.750 C62.206,7.826 62.023,10.448 56.167,13.619 C54.214,14.840 53.176,16.304 53.056,18.011 C52.444,21.917 52.018,31.736 51.775,47.474 L53.971,47.474 C54.946,47.474 55.738,46.988 56.350,46.010 C59.764,40.154 62.206,36.434 63.670,34.847 C64.402,34.115 65.254,33.995 66.232,34.481 C68.305,35.459 70.684,37.409 73.369,40.337 C75.808,43.145 77.638,45.767 78.859,48.206 ZM502.504,75.290 C516.412,75.779 526.231,78.890 531.967,84.623 C535.993,88.649 537.517,92.675 536.542,96.701 C535.687,100.727 533.551,103.412 530.137,104.753 C525.988,106.463 521.902,104.267 517.876,98.165 C512.506,89.504 506.956,83.039 501.223,78.767 C499.393,77.183 498.538,76.205 498.661,75.839 C498.781,75.473 500.062,75.290 502.504,75.290 Z"/>
</svg>